<svg width="58" height="56" viewBox="0 0 58 56" fill="none" xmlns="http://www.w3.org/2000/svg">
<path d="M35.8722 28L56.5876 7.99372C58.4708 6.17496 58.4708 3.18282 56.5876 1.36407C54.7044 -0.454688 51.6062 -0.454688 49.723 1.36407L29.0076 21.3704L8.29222 1.36407C6.40901 -0.454688 3.31081 -0.454688 1.4276 1.36407C0.48599 2.27344 0 3.47617 0 4.67889C0 5.88161 0.48599 7.08434 1.4276 7.99372L22.143 28L1.4276 48.0063C0.48599 48.9157 0 50.1184 0 51.3211C0 52.5238 0.48599 53.7266 1.4276 54.6359C3.31081 56.4547 6.40901 56.4547 8.29222 54.6359L29.0076 34.6297L49.723 54.6359C51.6062 56.4547 54.7044 56.4547 56.5876 54.6359C58.4708 52.8172 58.4708 49.825 56.5876 48.0063L35.8722 28Z" fill="#7544D7"/>
</svg>
