<svg width="82" height="88" viewBox="0 0 82 88" fill="none" xmlns="http://www.w3.org/2000/svg">
<path d="M81.9958 25.872C81.9952 24.3924 81.6638 23.0849 80.9935 21.9627C80.3352 20.8592 79.3492 19.9343 78.0268 19.2031C67.1103 13.1928 56.1833 7.20089 45.2703 1.18447C42.3283 -0.437353 39.4757 -0.378228 36.5555 1.26687C32.2104 3.7137 10.4561 15.6145 3.97356 19.1997C1.30388 20.6754 0.00481255 22.9338 0.00417087 25.8693C0 37.9563 0.00417087 50.0431 0 62.1305C0.000641673 63.5777 0.317949 64.8597 0.958659 65.9651C1.61734 67.1019 2.61706 68.0522 3.97003 68.8C10.4528 72.3852 32.21 84.2851 36.5542 86.7326C39.4757 88.3786 42.3283 88.4374 45.2713 86.815C56.1845 80.7982 67.1122 74.8066 78.0303 68.7963C79.3833 68.0488 80.383 67.0979 81.0417 65.962C81.6814 64.8567 81.9994 63.5746 82 62.1271C82 62.1271 82 37.9594 81.9958 25.872Z" fill="#5C8DBC"/>
<path d="M41.1254 43.8821L0.958618 65.9651C1.6173 67.1019 2.61702 68.0522 3.96999 68.8C10.4528 72.3852 32.21 84.2851 36.5541 86.7326C39.4757 88.3786 42.3282 88.4374 45.2713 86.815C56.1845 80.7982 67.1122 74.8066 78.0302 68.7963C79.3832 68.0489 80.3829 67.0979 81.0416 65.962L41.1254 43.8821Z" fill="#1A4674"/>
<path d="M29.2285 50.4233C31.5658 54.3194 35.9597 56.9473 41 56.9473C46.0715 56.9473 50.4903 54.286 52.8158 50.3482L41.1255 43.8821L29.2285 50.4233Z" fill="#1A4674"/>
<path d="M81.9959 25.872C81.9952 24.3923 81.6638 23.0848 80.9936 21.9626L41.1255 43.882L81.0417 65.9619C81.6814 64.8566 81.9994 63.5745 82 62.127C82 62.127 82 37.9594 81.9959 25.872Z" fill="#1B598E"/>
<path d="M79.8011 45.4605H76.6819V48.4395H73.5621V45.4605H70.4432V42.4825H73.5621V39.5042H76.6819V42.4825H79.8011V45.4605Z" fill="white"/>
<path d="M68.4193 45.4605H65.3005V48.4395H62.1813V45.4605H59.0621V42.4825H62.1813V39.5042H65.3005V42.4825H68.4193V45.4605Z" fill="white"/>
<path d="M52.8158 50.3482C50.4904 54.2861 46.0715 56.9473 41 56.9473C35.9597 56.9473 31.5658 54.3195 29.2285 50.4233C28.0931 48.53 27.4402 46.3381 27.4402 43.9997C27.4402 36.8492 33.5114 31.0524 41 31.0524C46.008 31.0524 50.3787 33.6475 52.7276 37.5039L64.5796 30.9872C59.8687 23.2224 51.0736 17.9985 41 17.9985C25.9605 17.9985 13.769 29.6399 13.769 43.9997C13.769 48.7108 15.0816 53.1287 17.3756 56.9394C22.0745 64.7452 30.8946 70.0012 41 70.0012C51.124 70.0012 59.9579 64.724 64.6502 56.8953L52.8158 50.3482Z" fill="white"/>
</svg>
