<svg width="78" height="80" viewBox="0 0 78 80" fill="none" xmlns="http://www.w3.org/2000/svg">
<path d="M78 0L70.894 71.9916L38.9523 80L7.09847 72.0029L0 0H78Z" fill="#264DE4"/>
<path d="M39 73.8789L64.8105 67.4076L70.883 5.88745H39V73.8789Z" fill="#2965F1"/>
<path d="M39 32.5923H16.2731L17.1483 41.4231H39V32.5923Z" fill="#EBEBEB"/>
<path d="M39 14.7183H38.9663H14.5146L15.4022 23.5492H39V14.7183Z" fill="#EBEBEB"/>
<path d="M17.5846 45.8386L18.9526 59.7043L38.9551 64.7261L39 64.7148V55.527L38.9572 55.5373L28.0821 52.8816L27.3869 45.8386H22.1025H17.5846Z" fill="#EBEBEB"/>
<path d="M50.9905 41.4229L49.8571 52.8759L38.9662 55.5342V64.7217L58.9846 59.7042L59.1315 58.2123L61.4261 34.9635L61.6643 32.5922L63.4272 14.7183H38.9662V23.5492H52.7258L51.8373 32.5922H38.9662V41.4229H50.9905Z" fill="white"/>
</svg>
