<svg width="65" height="80" viewBox="0 0 65 80" fill="none" xmlns="http://www.w3.org/2000/svg">
<g clip-path="url(#clip0_35_3)">
<path d="M16.2532 79.9999C25.2215 79.9999 32.5 74.0266 32.5 66.6666V53.3333H16.2532C7.28504 53.3333 0.00650024 59.3066 0.00650024 66.6666C0.00650024 74.0266 7.28504 79.9999 16.2532 79.9999Z" fill="#0ACF83"/>
<path d="M0.00650024 40.0001C0.00650024 32.6401 7.28504 26.6667 16.2532 26.6667H32.5V53.3334H16.2532C7.28504 53.3334 0.00650024 47.3601 0.00650024 40.0001Z" fill="#A259FF"/>
<path d="M0.00650024 13.3333C0.00650024 5.97333 7.28504 0 16.2532 0H32.5V26.6667H16.2532C7.28504 26.6667 0.00650024 20.6933 0.00650024 13.3333Z" fill="#F24E1E"/>
<path d="M32.5 0H48.7467C57.715 0 64.9935 5.97333 64.9935 13.3333C64.9935 20.6933 57.715 26.6667 48.7467 26.6667H32.5V0Z" fill="#FF7262"/>
<path d="M64.9935 40.0001C64.9935 47.3601 57.715 53.3334 48.7467 53.3334C39.7785 53.3334 32.5 47.3601 32.5 40.0001C32.5 32.6401 39.7785 26.6667 48.7467 26.6667C57.715 26.6667 64.9935 32.6401 64.9935 40.0001Z" fill="#1ABCFE"/>
</g>
<defs>
<clipPath id="clip0_35_3">
<rect width="65" height="80" fill="white"/>
</clipPath>
</defs>
</svg>
