<svg width="64" height="64" viewBox="0 0 64 64" fill="none" xmlns="http://www.w3.org/2000/svg">
<g clip-path="url(#clip0_72_38)">
<mask id="mask0_72_38" style="mask-type:luminance" maskUnits="userSpaceOnUse" x="-7" y="-4" width="78" height="78">
<path d="M-6.36115 -3.56123H70.7176V73.3015H-6.36115V-3.56123Z" fill="white"/>
</mask>
<g mask="url(#mask0_72_38)">
<path d="M50.2139 53.7313C50.2139 57.1937 42.1713 60.0002 32.2503 60.0002C22.3293 60.0002 14.2867 57.1937 14.2867 53.7313C14.2867 50.2689 22.3289 47.4613 32.2503 47.4613C42.1717 47.4613 50.2139 50.2725 50.2139 53.7313" fill="#A0DCF2"/>
</g>
<mask id="mask1_72_38" style="mask-type:luminance" maskUnits="userSpaceOnUse" x="21" y="51" width="22" height="18">
<path d="M37.0756 53.495C37.198 53.0986 37.2183 52.4873 35.9915 52.7641C35.9915 52.7641 32.6389 53.2417 32.4791 57.1421L32.4027 64.6149H31.5969L31.5209 57.1421C31.3611 53.242 28.0088 52.7641 28.0088 52.7641C26.7856 52.4873 26.8016 53.0979 26.924 53.4943C25.7215 51.4525 22.5013 51.7165 22.5013 51.7165C21.3833 52.114 22.4213 52.8303 22.4213 52.8303C24.177 53.4666 24.3376 55.3774 24.3376 55.3774V60.7756L24.5232 64.949C24.9218 66.8079 25.9056 67.9068 26.8705 68.5537L37.1487 68.542C38.392 67.7004 39.6634 66.1058 39.6634 63.095V55.3774C39.6634 55.3774 39.8229 53.4666 41.5797 52.8303C41.5797 52.8303 42.6167 52.1136 41.4994 51.7165C41.4994 51.7165 41.3631 51.7058 41.1365 51.7051C40.2604 51.7051 38.0319 51.8724 37.0763 53.495M27.3715 61.1884V55.2984C27.3715 54.723 27.2698 54.2391 27.0957 53.8324C28.2519 54.7312 28.3293 56.9834 28.3293 56.9834V64.3352C27.1785 63.5231 27.3715 61.1873 27.3715 61.1873M35.6753 56.9823C35.6753 56.9823 35.7528 54.7298 36.9086 53.8313C36.7348 54.238 36.6331 54.722 36.6331 55.2974V61.1877C36.6331 61.1877 36.8258 63.3584 35.6753 64.2522V56.9823Z" fill="white"/>
</mask>
<g mask="url(#mask1_72_38)">
<path d="M50.2139 53.7313C50.2139 57.1937 42.1713 60.0002 32.2503 60.0002C22.3293 60.0002 14.2867 57.1937 14.2867 53.7313C14.2867 50.2689 22.3289 47.4613 32.2503 47.4613C42.1717 47.4613 50.2139 50.2725 50.2139 53.7313" fill="#82BDE7"/>
</g>
<mask id="mask2_72_38" style="mask-type:luminance" maskUnits="userSpaceOnUse" x="-7" y="-4" width="78" height="78">
<path d="M-6.36115 -3.56123H70.7176V73.3015H-6.36115V-3.56123Z" fill="white"/>
</mask>
<g mask="url(#mask2_72_38)">
<path d="M11.7309 35.2971L11.2124 37.0987C11.2124 37.0987 11.0775 37.7499 11.6927 37.8652C12.3351 37.8528 12.2826 37.2532 12.2376 37.0589L11.7309 35.2971Z" fill="#A0DCF2"/>
<path d="M63.9525 27.7435L64 27.5094C58.7301 26.4585 53.3224 26.4479 50.0473 26.5834C50.5847 24.6526 50.7467 22.4307 50.7467 19.953C50.7467 16.3995 49.4078 13.5566 47.2343 11.3934C47.6143 10.1711 48.1217 7.45566 46.7275 3.98011C46.7275 3.98011 44.2653 3.20152 38.7071 6.91335C36.5282 6.37033 34.2094 6.10202 31.887 6.10202C29.332 6.10202 26.7502 6.42655 24.3422 7.08522C18.602 3.17981 16.0684 3.97975 16.0684 3.97975C14.4141 8.10757 15.4368 11.1572 15.7472 11.9158C13.8031 14.0082 12.6163 16.6785 12.6163 19.9526C12.6163 22.4247 12.8989 24.642 13.5883 26.5692C10.2886 26.4497 5.07755 26.4956 -0.00750732 27.5086L0.0395963 27.7428C5.15141 26.7233 10.3946 26.6877 13.6711 26.8115C13.8228 27.2101 13.9923 27.5944 14.1814 27.9716C10.9384 28.0759 5.40156 28.4876 0.094907 29.9807L0.159853 30.2102C5.50826 28.7061 11.0936 28.3043 14.3052 28.2068C16.2429 31.808 20.0629 34.1345 26.8591 34.8611C25.8942 35.5074 24.9107 36.6062 24.511 38.4659C23.1968 39.0921 19.0359 40.623 16.5391 36.3415C16.5391 36.3415 15.1417 33.7936 12.4668 33.5943C12.4668 33.5943 9.87249 33.5587 12.2873 35.2063C12.2873 35.2063 14.024 36.0223 15.2216 39.085C15.2216 39.085 16.7846 44.3142 24.3255 42.6364V48.0381C24.3255 48.0381 24.166 49.949 22.4092 50.5853C22.4092 50.5853 21.3715 51.3019 22.4891 51.6991C22.4891 51.6991 27.3583 52.0976 27.3583 48.1175V42.2275C27.3583 42.2275 27.1656 39.8914 28.3157 39.0797V48.7612C28.3157 48.7612 28.2365 51.0696 27.0389 51.9453C27.0389 51.9453 26.2407 53.3776 27.9967 52.9801C27.9967 52.9801 31.3489 52.5026 31.5088 48.6021L31.5851 38.8117H32.3905L32.4673 48.6021C32.6268 52.5022 35.9793 52.9801 35.9793 52.9801C37.735 53.3776 36.9368 51.9453 36.9368 51.9453C35.7395 51.0699 35.66 48.7612 35.66 48.7612V39.1701C36.8101 40.0597 36.6177 42.2346 36.6177 42.2346V48.1246C36.6177 52.1044 41.4865 51.7062 41.4865 51.7062C42.6035 51.3087 41.5668 50.5924 41.5668 50.5924C39.8104 49.9519 39.6506 48.0452 39.6506 48.0452V40.3244C39.6506 37.314 38.3791 35.7191 37.1359 34.8775C44.3798 34.1608 47.8612 31.8272 49.4642 28.2011C52.6387 28.288 58.3518 28.6737 63.8165 30.2117L63.8815 29.9821C58.4478 28.4538 52.7729 28.0584 49.5659 27.9652C49.7179 27.5987 49.8503 27.2179 49.9681 26.8265C53.2171 26.6842 58.6494 26.6895 63.94 27.7446" fill="#292929"/>
<path d="M43.6608 19.7821C45.222 21.1924 46.1352 22.8958 46.1352 24.7302C46.1352 33.2972 39.7305 33.5295 31.831 33.5295C23.9315 33.5295 17.5261 32.3471 17.5261 24.7337C17.5261 22.9111 18.4268 21.2187 19.9687 19.8142C22.5402 17.4734 26.893 18.7128 31.8303 18.7128C36.7483 18.7128 41.0847 17.461 43.6597 19.7857" fill="#F5CDB5"/>
<path d="M27.0742 25.1703C27.0742 27.5296 25.7418 29.4426 24.0981 29.4426C22.4545 29.4426 21.1213 27.53 21.1213 25.1703C21.1213 22.8107 22.4545 20.8988 24.0981 20.8988C25.7418 20.8988 27.0742 22.8107 27.0742 25.1703Z" fill="white"/>
<path d="M26.1189 25.2241C26.1189 26.7969 25.2268 28.0715 24.1349 28.0715C23.0429 28.0715 22.1508 26.7969 22.1508 25.2241C22.1508 23.6512 23.0386 22.3751 24.1349 22.3751C25.2311 22.3751 26.1189 23.6505 26.1189 25.2241Z" fill="#B1645A"/>
<path d="M43.0416 25.1703C43.0416 27.5296 41.7092 29.4426 40.0648 29.4426C38.4205 29.4426 37.0887 27.53 37.0887 25.1703C37.0887 22.8107 38.4216 20.8988 40.0648 20.8988C41.7081 20.8988 43.0416 22.8107 43.0416 25.1703Z" fill="white"/>
<path d="M42.0864 25.2241C42.0864 26.7969 41.1943 28.0716 40.1024 28.0716C39.0104 28.0716 38.1183 26.7969 38.1183 25.2241C38.1183 23.6512 39.0104 22.3752 40.1024 22.3752C41.1943 22.3752 42.0864 23.6505 42.0864 25.2241ZM32.6172 28.9605C32.6172 29.3704 32.2839 29.7028 31.8728 29.7028C31.4617 29.7028 31.1284 29.3704 31.1284 28.9605C31.1284 28.5505 31.4613 28.2182 31.8728 28.2182C32.2842 28.2182 32.6172 28.5505 32.6172 28.9605ZM30.1389 30.8375C30.1284 30.808 30.1239 30.7767 30.1255 30.7454C30.1272 30.7141 30.135 30.6834 30.1486 30.6551C30.1621 30.6268 30.1811 30.6015 30.2045 30.5805C30.2279 30.5596 30.2552 30.5434 30.2848 30.5329C30.3144 30.5225 30.3459 30.518 30.3773 30.5196C30.4086 30.5213 30.4394 30.5291 30.4678 30.5426C30.4961 30.5561 30.5215 30.5751 30.5426 30.5984C30.5636 30.6217 30.5798 30.6489 30.5903 30.6785C30.7815 31.2176 31.2943 31.5798 31.8667 31.5798C32.4391 31.5798 32.9515 31.2176 33.1435 30.6785C33.154 30.649 33.1702 30.6218 33.1912 30.5985C33.2122 30.5752 33.2376 30.5563 33.266 30.5428C33.2943 30.5293 33.325 30.5215 33.3564 30.5198C33.3878 30.5182 33.4192 30.5227 33.4488 30.5331C33.4784 30.5436 33.5057 30.5597 33.529 30.5807C33.5524 30.6016 33.5714 30.627 33.5849 30.6552C33.5984 30.6835 33.6063 30.7141 33.6079 30.7454C33.6096 30.7767 33.605 30.808 33.5946 30.8375C33.4659 31.1916 33.2311 31.4975 32.9219 31.7137C32.6127 31.9299 32.2443 32.0459 31.8667 32.0459C31.4891 32.0459 31.1207 31.9299 30.8115 31.7137C30.5024 31.4975 30.2675 31.1916 30.1389 30.8375Z" fill="#B1645A"/>
<path d="M13.6365 34.2348C13.6365 34.433 13.4039 34.5928 13.1173 34.5928C12.8308 34.5928 12.5984 34.4326 12.5984 34.2348C12.5984 34.0369 12.8304 33.8761 13.1173 33.8761C13.4042 33.8761 13.6365 34.0362 13.6365 34.2348ZM15.0739 35.0301C15.0739 35.2283 14.8412 35.3888 14.5547 35.3888C14.2681 35.3888 14.0358 35.2287 14.0358 35.0301C14.0358 34.8315 14.2678 34.6721 14.5547 34.6721C14.8416 34.6721 15.0739 34.8322 15.0739 35.0301ZM15.9524 36.062C15.9524 36.2595 15.7205 36.42 15.4332 36.42C15.146 36.42 14.9147 36.2599 14.9147 36.062C14.9147 35.8642 15.1467 35.7034 15.4332 35.7034C15.7198 35.7034 15.9524 35.8635 15.9524 36.062ZM16.75 37.2566C16.75 37.4548 16.518 37.6153 16.2315 37.6153C15.945 37.6153 15.7123 37.4552 15.7123 37.2566C15.7123 37.0581 15.9442 36.8979 16.2315 36.8979C16.5188 36.8979 16.75 37.0581 16.75 37.2566ZM17.6285 38.375C17.6285 38.5725 17.3966 38.733 17.1097 38.733C16.8228 38.733 16.5905 38.5729 16.5905 38.375C16.5905 38.1772 16.8232 38.0164 17.1097 38.0164C17.3962 38.0164 17.6285 38.1765 17.6285 38.375ZM18.8265 39.3298C18.8265 39.528 18.5945 39.6885 18.3073 39.6885C18.02 39.6885 17.7888 39.5283 17.7888 39.3298C17.7888 39.1312 18.0207 38.9718 18.3073 38.9718C18.5938 38.9718 18.8265 39.1319 18.8265 39.3298Z" fill="#C5E6DA"/>
<path d="M20.503 39.9672C20.503 40.1647 20.271 40.3252 19.9841 40.3252C19.6972 40.3252 19.4649 40.1651 19.4649 39.9672C19.4649 39.7694 19.6969 39.6085 19.9841 39.6085C20.2714 39.6085 20.503 39.7687 20.503 39.9672Z" fill="#C5E6DA"/>
<path d="M22.1715 39.9672C22.1715 40.1647 21.9396 40.3252 21.6527 40.3252C21.3658 40.3252 21.1335 40.1651 21.1335 39.9672C21.1335 39.7694 21.3654 39.6085 21.6527 39.6085C21.94 39.6085 22.1715 39.7687 22.1715 39.9672Z" fill="#C5E6DA"/>
<path d="M23.8652 39.6899C23.8652 39.8881 23.6332 40.0486 23.3463 40.0486C23.0594 40.0486 22.8271 39.8885 22.8271 39.6899C22.8271 39.4913 23.059 39.3312 23.3463 39.3312C23.6336 39.3312 23.8652 39.4913 23.8652 39.6899Z" fill="#C5E6DA"/>
</g>
</g>
<defs>
<clipPath id="clip0_72_38">
<rect width="64" height="64" fill="white"/>
</clipPath>
</defs>
</svg>
