<svg width="50" height="48" viewBox="0 0 50 48" fill="none" xmlns="http://www.w3.org/2000/svg">
<path fill-rule="evenodd" clip-rule="evenodd" d="M25 0C11.1914 0 0 11.0151 0 24.6061C0 35.4732 7.16406 44.6957 17.0957 47.9579C18.3418 48.1867 18.8076 47.4187 18.8076 46.7718C18.8076 46.1788 18.7803 44.2507 18.7803 42.188C11.8213 43.6711 10.3555 39.2891 10.3555 39.2891C9.21875 36.444 7.57422 35.6895 7.57422 35.6895C5.2998 34.166 7.73828 34.1929 7.73828 34.1929C10.2451 34.3678 11.5742 36.7275 11.5742 36.7275C13.8066 40.4896 17.4238 39.3967 18.8486 38.7768C19.0674 37.186 19.7256 36.1076 20.4375 35.4867C14.8896 34.8667 9.04004 32.7492 9.04004 23.3249C9.04004 20.6422 10.0127 18.444 11.6152 16.7187C11.3545 16.0988 10.5059 13.591 11.8613 10.2067C11.8613 10.2067 13.957 9.54641 18.7383 12.7279C20.7383 12.1887 22.875 11.9051 24.999 11.9051C27.1221 11.9186 29.2598 12.1887 31.2598 12.7279C36.0273 9.54641 38.123 10.2067 38.123 10.2067C39.4795 13.591 38.6299 16.0988 38.3691 16.7187C39.9717 18.445 40.9443 20.6422 40.9443 23.3249C40.9443 32.7761 35.0947 34.8523 29.5332 35.4597C30.4238 36.2287 31.2314 37.7252 31.2314 40.0167C31.2314 43.3068 31.2041 45.9625 31.2041 46.7718C31.2041 47.4322 31.6562 48.1876 32.916 47.9579C42.8496 44.6957 50 35.4867 50 24.6061C50 11.0151 38.8086 0 25 0Z" fill="#7544D7"/>
</svg>
