<svg width="70" height="75" viewBox="0 0 70 75" fill="none" xmlns="http://www.w3.org/2000/svg">
<g clip-path="url(#clip0_35_9)">
<path d="M4.40753 2.4828L8.95067 64.7556C9.01887 65.6907 9.60964 66.4881 10.4442 66.7716L34.3503 74.8924C34.7731 75.0359 35.2269 75.0359 35.6497 74.8924L59.5558 66.7716C60.3903 66.4881 60.9811 65.6907 61.0493 64.7556L65.5925 2.4828C65.6902 1.14397 64.7026 0 63.4493 0H6.55084C5.29755 0 4.30998 1.14397 4.40753 2.4828ZM53.9419 21.804H24.3334L25.2269 30.6325H53.2979L51.4616 55.8013L35.0001 61.3931L18.5386 55.8013L17.5792 42.6521H26.2195V49.102L35.231 51.6933L44.1886 49.102L44.8835 38.8227H17.2998L15.4685 13.7198H54.5315L53.9419 21.804Z" fill="#FC490B"/>
</g>
<defs>
<clipPath id="clip0_35_9">
<rect width="70" height="75" fill="white"/>
</clipPath>
</defs>
</svg>
