<svg width="63" height="66" viewBox="0 0 63 66" fill="none" xmlns="http://www.w3.org/2000/svg">
<g clip-path="url(#clip0_73_69)">
<path fill-rule="evenodd" clip-rule="evenodd" d="M61.9261 31.8197C61.9261 44.8898 48.2755 55.4854 31.4366 55.4854C14.598 55.4854 0.947388 44.8898 0.947388 31.8197C0.947388 18.7493 14.598 8.15357 31.4366 8.15357C48.2755 8.15357 61.9261 18.7493 61.9261 31.8197Z" fill="#D33833"/>
<path d="M2.18977 37.6809C2.18977 37.6809 -0.0174556 13.0015 29.9495 12.2963L27.8589 9.65206L11.598 13.7948L6.95185 17.8492L2.88667 23.7548L0.563477 30.6298L1.26038 35.213" fill="#EF3D3A"/>
<path d="M10.554 15.6753C5.20457 19.8289 1.8943 25.5637 1.8943 31.908C1.8943 38.251 5.20457 43.9865 10.554 48.1393C15.906 52.2921 23.2818 54.8546 31.4362 54.8546C39.5907 54.8546 46.9671 52.2921 52.3186 48.1393C57.6677 43.9865 60.9786 38.251 60.9786 31.908C60.9786 25.5637 57.6677 19.8289 52.3186 15.6753C46.9671 11.5233 39.5907 8.96081 31.4362 8.96028C23.2818 8.96081 15.906 11.5233 10.554 15.6753ZM9.19992 49.1439C3.51472 44.7318 0 38.6341 0 31.908C0 25.1808 3.51472 19.0837 9.19992 14.6713C14.8838 10.2581 22.7517 7.52262 31.4362 7.52341C40.1207 7.52262 47.9894 10.2581 53.6723 14.6713C59.358 19.0837 62.8732 25.1813 62.8725 31.908C62.8732 38.6341 59.358 44.7318 53.6723 49.1439C47.9894 53.5569 40.1207 56.292 31.4362 56.292C22.7517 56.292 14.8838 53.5569 9.19992 49.1439Z" fill="#231F20"/>
<path fill-rule="evenodd" clip-rule="evenodd" d="M44.2711 31.9507L39.6249 32.4795L33.3527 33.0084L29.2873 33.0964L25.3383 33.0084L22.3182 32.3032L19.6467 30.0997L17.556 25.6045L17.0915 24.6349L14.3038 23.9299L12.6777 21.9026L11.5162 18.994L12.7941 16.4378L15.8138 15.6445L18.2529 16.5261L19.4147 18.4651L20.8085 18.2887L21.2729 17.8482L20.8085 15.8209L20.6921 13.2647L21.389 9.73915L21.3618 7.7253L23.4797 5.15591L27.1965 3.12857L33.7012 1.01319L40.9023 1.80646L47.1744 5.24396L50.0784 8.76951L51.9367 11.3257L52.4012 17.6718L51.0074 23.1367L48.4522 27.9843L46.0131 30.5405" fill="#F0D6B7"/>
<path fill-rule="evenodd" clip-rule="evenodd" d="M40.3218 47.199L23.712 47.7279V49.8432L25.1058 57.2471L24.4089 57.8643L12.794 54.8673L11.9807 53.8096L10.8193 43.8498L8.1482 37.8562L7.56726 36.446L16.8591 31.5983L19.7631 30.7167L22.3182 33.0965L24.525 34.595L27.0805 35.2119L28.2419 35.4763L29.6357 40.0596L30.681 41.0292L33.3527 40.324L31.494 43.0566L41.5992 46.6702L40.3218 47.199Z" fill="#335061"/>
<path fill-rule="evenodd" clip-rule="evenodd" d="M12.7941 16.4378L15.8137 15.6445L18.2529 16.5261L19.4146 18.4651L20.8084 18.2887L21.1569 17.231L20.46 15.204L21.1569 10.356L20.576 7.7118L22.6667 5.86084L27.1965 3.12855L25.9188 1.80643L19.5306 4.18624L16.8591 5.77278L15.3492 8.24064L13.0261 10.6205L12.3292 13.441L12.7941 16.4378Z" fill="#6D6B6D"/>
<path fill-rule="evenodd" clip-rule="evenodd" d="M17.556 8.15273C17.556 8.15273 19.2982 4.8916 26.2673 3.30506C33.2363 1.71852 26.6157 2.15905 26.6157 2.15905L19.0662 4.36276L16.1622 6.56619L14.8848 8.3291L17.556 8.15273Z" fill="#DCD9D8"/>
<path fill-rule="evenodd" clip-rule="evenodd" d="M14.0715 15.8208C14.0715 15.8208 11.6323 9.6508 20.9244 8.76948L20.5759 7.71178L14.1879 8.85779L12.3292 13.441L12.7941 16.4377L14.0715 15.8208Z" fill="#DCD9D8"/>
<path fill-rule="evenodd" clip-rule="evenodd" d="M17.7883 24.0181L19.3091 22.8998C19.3091 22.8998 19.9956 22.9604 20.1115 23.5773C20.2275 24.1944 20.5759 29.7473 25.5704 32.7443C26.0259 33.0177 21.8538 32.3032 21.8538 32.3032L18.1368 27.8964" fill="#F7E4CD"/>
<path fill-rule="evenodd" clip-rule="evenodd" d="M39.1607 22.3435C39.1607 22.3435 39.4314 19.6718 40.3795 19.8772C41.3277 20.0827 41.3277 20.8022 41.3277 20.8022C41.3277 20.8022 39.0251 21.9326 39.1607 22.3435Z" fill="#F7E4CD"/>
<path d="M48.8007 12.5599C48.8007 12.5599 46.8863 12.8666 46.71 14.1464C46.5336 15.4265 48.8007 14.4109 49.1491 14.3228" fill="#F7E4CD"/>
<path d="M34.7465 12.6482C34.7465 12.6482 32.1909 12.9126 32.1909 14.1464C32.1909 15.3805 35.095 15.2924 35.9079 14.7636" fill="#F7E4CD"/>
<path fill-rule="evenodd" clip-rule="evenodd" d="M18.9498 18.3771C18.9498 18.3771 14.5359 16.3497 14.0715 18.289C13.6069 20.228 12.5613 21.6385 14.7684 23.6655L13.2585 23.313L11.8647 20.5808L11.4003 17.9365L14.0715 15.8209L17.0915 15.9973L18.8337 17.055L18.9498 18.3771Z" fill="#F7E4CD"/>
<path fill-rule="evenodd" clip-rule="evenodd" d="M21.0405 12.8242C21.0405 12.8242 23.0151 5.0679 33.0043 3.56941C41.2281 2.33588 45.5482 3.83383 47.1744 5.244C47.1744 5.244 39.857 -1.36631 32.8879 0.660756C25.9188 2.68809 20.8085 6.39001 20.9244 8.76955C21.1222 12.8226 21.0405 12.8242 21.0405 12.8242Z" fill="#F7E4CD"/>
<path fill-rule="evenodd" clip-rule="evenodd" d="M47.9877 6.12528C47.9877 6.12528 44.6196 6.03723 44.5032 8.32898C44.5032 8.32898 44.5028 8.68146 44.7352 9.03394C44.7352 9.03394 47.4072 6.74218 49.033 7.97624" fill="#F7E4CD"/>
<path fill-rule="evenodd" clip-rule="evenodd" d="M33.2384 9.27281C33.2384 9.27281 32.6585 5.75519 28.7064 7.80023C26.1512 9.12235 26.3837 10.9733 26.8481 11.3258C27.3126 11.6785 27.1863 12.3885 27.54 11.9012C27.8934 11.4138 27.777 9.8273 29.0549 9.38677C30.3326 8.94598 32.4271 8.45362 33.2384 9.27281Z" fill="#F7E4CD"/>
<path fill-rule="evenodd" clip-rule="evenodd" d="M22.3182 33.0965L11.4002 36.7984C11.4002 36.7984 15.9301 50.4604 13.6069 54.6912L11.9807 54.2506L11.8646 49.0502L8.8451 39.1785L7.56726 36.446L18.9498 30.6289L22.3182 33.0965Z" fill="#49728B"/>
<path fill-rule="evenodd" clip-rule="evenodd" d="M23.4408 40.6531L24.9898 42.0873V47.3757H23.1311C23.1311 47.3757 22.899 43.6738 22.899 43.233C22.899 42.7922 23.1311 41.2057 23.1311 41.2057" fill="#49728B"/>
<path fill-rule="evenodd" clip-rule="evenodd" d="M23.4796 48.169L18.2528 48.3451L19.763 49.1384L23.4796 49.5791" fill="#49728B"/>
<path fill-rule="evenodd" clip-rule="evenodd" d="M41.3671 47.2872L45.6645 47.1991L46.7099 55.3083L42.296 55.7488L41.3671 47.2872Z" fill="#335061"/>
<path fill-rule="evenodd" clip-rule="evenodd" d="M42.5284 47.2874L49.033 47.0229C49.033 47.0229 51.7042 41.9108 51.7042 41.6464C51.7042 41.3819 54.0273 34.2426 54.0273 34.2426L48.8006 30.1001L47.7552 29.3949L44.9676 31.5103V39.7074L42.5284 47.2874Z" fill="#335061"/>
<path fill-rule="evenodd" clip-rule="evenodd" d="M45.4321 46.6703L41.3671 47.2872L41.9476 49.7554C43.4574 50.2842 46.013 48.8738 46.013 48.8738" fill="#49728B"/>
<path fill-rule="evenodd" clip-rule="evenodd" d="M45.5485 31.2459L53.6789 35.8291L53.9113 33.7137L47.7552 29.3949L45.5485 31.2459Z" fill="#49728B"/>
<path fill-rule="evenodd" clip-rule="evenodd" d="M27.5105 64.6521L25.1057 57.2472L23.9097 51.7835L23.7119 47.7279L34.5957 47.2883L41.367 47.2874L40.7513 56.5431L41.7967 63.6825L41.6806 65.0046L32.8535 65.5334L27.5105 64.6521Z" fill="white"/>
<path fill-rule="evenodd" clip-rule="evenodd" d="M39.8569 47.1992C39.8569 47.1992 39.2764 56.366 41.0186 62.8883C41.0186 62.8883 37.5341 64.5631 32.4232 65.0037L42.18 64.7392L43.3414 64.2104L41.9476 49.7554L41.5991 46.6701" fill="#DCD9D8"/>
<path fill-rule="evenodd" clip-rule="evenodd" d="M46.9078 54.604L51.4377 53.6344L60.0326 53.2819L61.3104 50.2852L58.9872 45.0848L56.316 44.8204L52.5991 45.7017L49.033 47.023L47.1399 46.7594L45.6646 47.1993" fill="white"/>
<path fill-rule="evenodd" clip-rule="evenodd" d="M46.8259 52.8402C46.8259 52.8402 49.8456 51.7827 50.3104 51.8708L49.033 47.0229L50.5429 46.5824C50.5429 46.5824 51.5882 51.1656 51.5882 51.6944C51.5882 51.6944 58.0924 51.9588 58.6733 51.9588C58.6733 51.9588 60.0671 49.9315 59.7186 47.8162L60.9964 50.6367L61.1124 52.2232L59.2541 54.3386L57.1634 54.6912L53.6789 54.6031L52.5175 53.4574L48.4522 53.8979L47.1744 54.2506" fill="#DCD9D8"/>
<path d="M42.2616 46.5833L39.7064 41.6472L37.0348 38.7386C37.0348 38.7386 37.6153 37.5045 38.4286 37.5045C39.2419 37.5045 41.1002 37.5045 41.1002 37.5045L43.6554 38.2097L43.4233 41.4709L42.2616 46.5833Z" fill="white"/>
<path fill-rule="evenodd" clip-rule="evenodd" d="M42.761 44.9075C42.761 44.9075 39.5085 40.1481 39.5085 39.4429C39.5085 39.4429 40.089 38.3852 40.9023 38.6496C41.7156 38.9141 43.4579 39.619 43.4579 39.619V37.9444L39.5085 37.3273L36.8373 37.5917L41.3671 45.7007L42.2961 45.7891" fill="#DCD9D8"/>
<path d="M28.556 33.274L25.3382 33.0085L22.3181 32.3033V33.0966L23.7937 34.3314L28.4397 35.918" fill="white"/>
<path fill-rule="evenodd" clip-rule="evenodd" d="M23.364 33.5381C23.364 33.5381 26.9649 34.6841 28.1263 34.4197L28.2419 35.4763L24.9902 34.9485L23.0155 33.8908L23.364 33.5381Z" fill="#DCD9D8"/>
<path fill-rule="evenodd" clip-rule="evenodd" d="M46.8952 37.8047C44.9244 37.7608 43.1438 37.5831 41.5848 37.2494C41.6908 36.7644 41.4925 36.2885 41.6517 35.9392C42.0862 35.7017 42.8145 35.7054 43.4713 35.6496C42.9034 35.4378 42.1054 35.354 41.45 35.4764C41.4346 35.1398 41.2357 34.9312 41.1151 34.6678C42.2232 34.3677 44.839 32.4001 46.3105 33.0517C47.0116 33.3616 47.3095 35.1316 47.3639 35.9923C47.4092 36.7063 47.2785 37.4266 46.8952 37.8047Z" fill="#D33833"/>
<path d="M46.8952 37.8047C44.9244 37.7608 43.1438 37.5831 41.5848 37.2494C41.6908 36.7644 41.4925 36.2885 41.6517 35.9392C42.0862 35.7017 42.8145 35.7054 43.4713 35.6496C42.9034 35.4378 42.1054 35.354 41.45 35.4764C41.4346 35.1398 41.2357 34.9312 41.1151 34.6678C42.2232 34.3677 44.839 32.4001 46.3105 33.0517C47.0116 33.3616 47.3095 35.1316 47.3639 35.9923C47.4092 36.7063 47.2785 37.4266 46.8952 37.8047Z" stroke="#D33833" stroke-width="2.5"/>
<path fill-rule="evenodd" clip-rule="evenodd" d="M37.4708 35.3598C37.4655 35.4729 37.4593 35.5869 37.4533 35.7011C36.838 36.0079 35.8445 36.0042 35.1692 36.262C36.1648 36.295 36.9484 36.477 37.6265 36.7334C37.6115 37.0185 37.5973 37.3033 37.5826 37.5883C36.4547 38.1743 35.4243 39.0469 34.0963 39.5964C33.4684 39.8563 31.2647 40.525 30.5967 40.4068C30.2187 40.3402 30.1846 39.9842 30.0336 39.6487C29.7117 38.9303 28.9705 37.7866 28.9059 36.7052C28.8235 35.3391 28.6418 33.0498 30.5817 33.3311C32.1467 33.5577 33.967 34.1048 35.1787 34.6072C35.9191 34.9145 36.3474 35.2942 37.4708 35.3598Z" fill="#D33833"/>
<path d="M37.4708 35.3598C37.4655 35.4729 37.4593 35.5869 37.4533 35.7011C36.838 36.0079 35.8445 36.0042 35.1692 36.262C36.1648 36.295 36.9484 36.477 37.6265 36.7334C37.6115 37.0185 37.5973 37.3033 37.5826 37.5883C36.4547 38.1743 35.4243 39.0469 34.0963 39.5964C33.4684 39.8563 31.2647 40.525 30.5967 40.4068C30.2187 40.3402 30.1846 39.9842 30.0336 39.6487C29.7117 38.9303 28.9705 37.7866 28.9059 36.7052C28.8235 35.3391 28.6418 33.0498 30.5817 33.3311C32.1467 33.5577 33.967 34.1048 35.1787 34.6072C35.9191 34.9145 36.3474 35.2942 37.4708 35.3598Z" stroke="#D33833" stroke-width="2.5"/>
<path fill-rule="evenodd" clip-rule="evenodd" d="M38.5909 36.9896C38.4188 36.2455 38.2198 36.0332 38.2968 35.384C40.912 34.0609 41.4029 37.6568 38.5909 36.9896Z" fill="#D33833"/>
<path d="M38.5909 36.9896C38.4188 36.2455 38.2198 36.0332 38.2968 35.384C40.912 34.0609 41.4029 37.6568 38.5909 36.9896Z" stroke="#D33833" stroke-width="2.5"/>
<path fill-rule="evenodd" clip-rule="evenodd" d="M42.3776 37.5928C42.3776 37.5928 41.5643 36.7112 42.1451 36.4468C42.726 36.1823 43.3069 36.447 43.6553 36.0062C44.0038 35.5654 43.6553 35.301 43.7714 34.7722C43.8874 34.2433 44.4686 34.155 45.0491 34.067C45.6297 33.9789 47.2562 33.8025 47.4883 34.2433L46.7914 32.6568L45.3976 32.3043L40.9838 34.2433L40.7513 35.213V37.152" fill="#EF3D3A"/>
<path fill-rule="evenodd" clip-rule="evenodd" d="M30.1819 40.5015C30.0424 39.1259 29.8947 37.7522 29.7304 36.378C29.4846 34.3261 30.3799 34.6841 32.7238 34.6841C33.0818 34.6841 34.9281 35.008 35.0601 35.213C35.6936 36.1948 34.0008 35.9766 35.7898 36.717C37.3 37.3418 39.9677 36.3376 39.3576 34.9486C39.0161 34.6397 37.5784 34.8523 37.063 34.6495C36.1557 34.2925 35.2483 33.9355 34.3408 33.5786C33.1863 33.124 30.5181 32.4614 29.2872 33.0965C26.1684 34.7061 29.484 38.7277 30.5966 40.4067" fill="#EF3D3A"/>
<path fill-rule="evenodd" clip-rule="evenodd" d="M33.2383 9.27276C30.0726 8.71324 28.4995 10.2781 27.5399 11.9011C26.6831 11.7435 27.024 10.8593 27.2404 10.4087C27.8071 9.22622 30.0907 7.65211 31.9565 7.8655C32.7595 7.95725 33.846 8.51439 33.2383 9.27276Z" fill="#231F20"/>
<path fill-rule="evenodd" clip-rule="evenodd" d="M48.6629 12.0085C48.7128 12.01 48.7633 12.0114 48.8131 12.013C49.5285 13.1407 50.1477 14.3354 51.0502 15.3309C50.4456 16.3995 46.4722 17.3451 46.5335 15.4264C47.3928 15.1413 48.8762 15.3682 49.6379 15.0041C49.1974 14.0868 48.5619 13.306 48.6629 12.0085Z" fill="#231F20"/>
<path fill-rule="evenodd" clip-rule="evenodd" d="M34.8591 12.038C35.5379 12.9822 35.7588 13.9744 36.7237 14.688C37.1582 15.0093 38.0032 15.4009 37.5844 16.2944C37.4865 16.5051 36.7711 16.975 36.3582 17.0673C34.8497 17.4052 31.3348 17.1371 32.5251 15.71C33.7726 15.7542 35.4494 16.3248 36.3819 15.6376C35.6658 14.7689 34.3892 13.0505 34.8591 12.038Z" fill="#231F20"/>
<path fill-rule="evenodd" clip-rule="evenodd" d="M48.0967 21.6348C45.8255 22.742 43.2929 23.9459 39.5715 23.6667C38.7763 23.142 38.4732 21.9746 39.2457 21.2036C39.6478 21.7282 39.3952 22.6931 40.5158 22.8382C42.6274 23.1124 45.085 21.858 46.6039 21.4196C47.5458 20.2146 46.5227 19.7714 45.6743 18.9959C43.9372 17.407 41.6071 15.4376 41.6918 13.0588C42.3939 12.6725 42.4546 13.6485 42.5553 13.8262C43.4623 15.437 45.745 17.4971 47.4109 18.8758C47.82 19.2154 48.4936 19.5411 48.5685 19.7656C48.7845 20.4185 48.0064 21.2007 48.0967 21.6348Z" fill="#231F20"/>
<path fill-rule="evenodd" clip-rule="evenodd" d="M18.1549 20.4693C17.443 20.161 17.2735 18.8029 16.4378 18.7643C15.2434 18.7093 15.4612 20.5262 15.4659 21.5886C14.6438 21.0222 14.4992 19.2784 15.1032 18.3828C14.4149 18.1263 14.1075 18.6657 13.7257 18.8558C14.2164 16.1508 18.9402 17.6011 18.1549 20.4693Z" fill="#231F20"/>
<path fill-rule="evenodd" clip-rule="evenodd" d="M49.5429 22.7614C48.4856 24.2884 46.9901 25.9701 43.8878 26.019C43.8248 25.5259 43.7763 24.7755 43.8913 24.4785C46.2629 24.3056 47.7271 23.3896 49.5429 22.7614Z" fill="#231F20"/>
<path fill-rule="evenodd" clip-rule="evenodd" d="M34.6802 23.7513C36.6588 24.5408 40.2953 24.6257 42.9846 24.566C43.1289 25.0131 43.1254 25.5655 43.131 26.1107C39.674 26.2416 35.5866 25.5925 34.6802 23.7513Z" fill="#231F20"/>
<path fill-rule="evenodd" clip-rule="evenodd" d="M34.304 25.2235C35.6723 27.8305 40.375 27.5303 44.3407 27.4584C44.1662 27.7969 43.7877 28.1967 43.3173 28.3413C42.0465 28.7337 38.5415 29.0315 36.7772 28.3204C35.6584 27.8691 34.9395 26.8492 34.3265 26.2513C34.0304 25.9626 32.5563 25.2251 34.304 25.2235Z" fill="#231F20"/>
<path fill-rule="evenodd" clip-rule="evenodd" d="M47.9316 39.6036C46.3259 41.6904 44.7896 43.8338 42.8846 45.6746C43.6833 43.8926 44.0251 40.9101 44.1457 38.6364C45.8165 38.043 47.2473 38.7699 47.9316 39.6036Z" fill="#81B0C4"/>
<path fill-rule="evenodd" clip-rule="evenodd" d="M56.5718 47.1041C54.7741 47.3772 53.511 48.703 51.7572 48.6179C52.721 47.5868 54.41 47.1522 56.5718 47.1041Z" fill="#231F20"/>
<path fill-rule="evenodd" clip-rule="evenodd" d="M57.3649 49.2389C55.8997 49.3563 54.1786 49.5364 52.6925 49.4436C53.396 48.6281 56.1066 48.9095 57.3649 49.2389Z" fill="#231F20"/>
<path fill-rule="evenodd" clip-rule="evenodd" d="M57.8725 51.0796C56.2257 51.1067 54.1789 51.0818 52.6136 50.9821C53.5395 50.2275 56.8045 50.7021 57.8725 51.0796Z" fill="#231F20"/>
<path fill-rule="evenodd" clip-rule="evenodd" d="M44.8331 56.1165C45.0694 57.6859 45.8893 59.2761 45.7865 60.9949C44.876 61.2279 44.353 61.4317 43.1331 61.4304C43.047 59.9697 42.7895 57.7367 42.8665 56.3442C43.4665 56.3744 44.3512 56.0189 44.8331 56.1165Z" fill="#DCD9D8"/>
<path fill-rule="evenodd" clip-rule="evenodd" d="M42.1783 32.987C41.3514 33.3966 40.6472 33.908 39.8531 34.3453C38.092 34.4114 37.131 34.2528 35.8372 33.4854C35.8584 33.4238 35.9884 33.4513 35.9933 33.3757C37.8784 34.0132 40.2747 33.116 42.1783 32.987Z" fill="#F0D6B7"/>
<path fill-rule="evenodd" clip-rule="evenodd" d="M32.2821 42.7385C32.8 41.0353 34.8295 40.1532 36.6724 39.2153C38.5746 41.0473 39.7315 43.4032 41.0054 45.6768C37.9955 44.9882 34.9201 43.871 32.2821 42.7385Z" fill="#81B0C4"/>
<path fill-rule="evenodd" clip-rule="evenodd" d="M42.8665 56.3443C42.7895 57.7367 43.047 59.9698 43.1331 61.4305C44.353 61.4317 44.8761 61.2279 45.7866 60.9949C45.8894 59.2762 45.0695 57.686 44.8332 56.1166C44.3513 56.019 43.4666 56.3744 42.8665 56.3443ZM23.871 48.4251C24.6755 54.037 25.8406 58.7544 27.9776 63.7239C32.7204 64.8167 38.4381 64.9119 42.6303 63.9258C41.8606 61.121 42.1968 57.7064 41.747 54.7133C41.4079 52.4637 41.5808 50.2001 41.1159 47.905C36.0362 47.103 28.8562 47.7175 23.871 48.4251ZM42.317 47.9402C42.2742 50.3503 42.4592 52.7278 42.7017 55.1409C43.9213 55.002 44.7489 54.9093 45.882 54.7208C45.5141 52.3976 45.5594 49.7834 44.8099 47.7283C43.9436 47.7346 43.1808 47.7207 42.317 47.9402ZM48.5038 47.5517C47.925 47.451 47.2511 47.5478 46.6981 47.5559C46.9581 49.5206 47.5888 51.6886 47.8107 53.7509C48.6808 53.7714 49.1456 53.46 49.8614 53.3553C49.8997 51.545 49.653 49.051 48.5038 47.5517ZM57.8715 54.0467C59.6852 53.7125 60.8257 52.0268 60.3184 50.2956C59.9779 49.1321 59.3716 46.9413 58.7228 46.197C58.2433 45.6465 56.9433 44.9258 55.9052 45.4302C54.2166 46.2508 51.2419 46.4889 50.0105 47.4822C50.6279 49.0423 50.8196 51.1851 51.0743 53.1619C53.1838 53.2617 55.7794 52.7214 57.5339 53.2947C56.3091 53.5958 54.7198 53.5982 53.6616 54.037C54.5264 54.354 56.5513 54.2899 57.8715 54.0467ZM41.0055 45.6767C39.7315 43.4032 38.5747 41.0472 36.6725 39.2152C34.8295 40.1531 32.8001 41.0352 32.2822 42.7384C34.9201 43.8709 37.9955 44.9881 41.0055 45.6767ZM44.1457 38.6364C44.0251 40.9101 43.6833 43.8926 42.8847 45.6746C44.7896 43.8339 46.326 41.6905 47.9316 39.6036C47.2473 38.7699 45.8165 38.043 44.1457 38.6364ZM40.5859 37.6765C39.8643 37.6176 39.2517 38.3061 38.3133 38.0084C38.0983 38.1887 37.9029 38.3841 37.6837 38.5602C39.7563 40.4557 40.6981 43.1448 42.2989 45.3723C43.1578 43.2326 43.0589 40.8884 43.2481 38.5531C42.0679 38.61 41.4131 37.7432 40.5859 37.6765ZM38.2969 35.384C38.2199 36.0332 38.4189 36.2455 38.591 36.9896C41.403 37.6567 40.9121 34.0608 38.2969 35.384ZM35.1787 34.6071C33.967 34.1047 32.1468 33.5576 30.5817 33.331C28.6418 33.0494 28.8235 35.339 28.9059 36.7051C28.9705 37.7865 29.7117 38.9302 30.0336 39.6486C30.1847 39.9841 30.2187 40.3401 30.5967 40.4067C31.2647 40.5249 33.4684 39.8562 34.0963 39.5963C35.4243 39.0468 36.4547 38.1742 37.5826 37.5882C37.5973 37.3032 37.6115 37.0184 37.6265 36.7333C36.9484 36.4769 36.1648 36.2949 35.1693 36.2619C35.8445 36.0041 36.838 36.0078 37.4533 35.701C37.4593 35.5868 37.4655 35.4728 37.4708 35.3597C36.3474 35.2941 35.9191 34.9144 35.1787 34.6071ZM23.6053 33.0119C22.5997 33.7866 26.4259 34.8427 27.6441 34.8996C27.6373 34.4093 28.0123 33.9471 27.9367 33.5954C26.4898 33.4027 24.5884 33.5299 23.6053 33.0119ZM35.9933 33.3757C35.9885 33.4513 35.8585 33.4238 35.8372 33.4854C37.131 34.2528 38.0921 34.4114 39.8531 34.3453C40.6473 33.908 41.3515 33.3966 42.1783 32.987C40.2748 33.116 37.8785 34.0132 35.9933 33.3757ZM47.364 35.9922C47.3096 35.1315 47.0117 33.3614 46.3106 33.0515C44.8391 32.3997 42.2233 34.3676 41.1152 34.6677C41.2358 34.931 41.4348 35.1397 41.4501 35.4763C42.1055 35.3539 42.9035 35.4377 43.4715 35.6495C42.8146 35.7053 42.0864 35.7016 41.6518 35.939C41.4926 36.2883 41.6909 36.7643 41.5849 37.2492C43.1439 37.5829 44.9245 37.7606 46.8953 37.8045C47.2786 37.4264 47.4093 36.7061 47.364 35.9922ZM21.9123 33.7612C21.5965 33.5904 19.4603 31.4811 19.1676 31.5686C15.302 32.7255 11.6875 34.7258 8.4575 36.6178C11.5371 41.6323 12.7802 47.7759 12.9999 53.6974C16.5277 54.9495 19.6263 56.7545 24.4134 56.9429C23.8595 53.9687 23.3538 51.3152 23.0393 48.515C21.8365 48.1302 20.1109 48.5324 18.9852 48.3957C18.9757 47.3663 20.7043 47.9449 20.8483 47.2527C20.9568 46.7291 19.8972 46.6894 20.2422 45.865C21.1222 46.1077 21.5843 46.6439 22.5228 46.8452C23.3803 45.4215 22.5108 42.9026 22.6344 41.7127C22.6578 41.4893 22.7814 40.475 23.4409 40.6529C24.0246 40.8105 23.4076 43.3506 23.4715 44.4767C23.5298 45.5143 23.3064 46.5183 23.8601 47.1696C28.486 46.6918 33.1866 46.383 38.1917 46.2788C37.0906 45.9202 35.7825 45.5809 34.3484 44.9675C33.5709 44.6349 31.1202 43.9428 30.8958 43.3825C30.5379 42.4895 31.835 42.0139 32.0569 41.2484C29.7219 42.2148 29.2663 40.3221 28.7139 38.9812C28.2135 37.7667 27.9286 36.8595 27.8058 36.159C25.7943 35.4313 23.6437 34.6944 21.9123 33.7612ZM45.321 31.8238C48.5418 30.6387 49.1223 36.2532 47.8599 38.0618C48.055 38.6012 48.7261 38.8077 49 39.2927C47.2027 41.7359 45.2064 44.0166 43.3725 46.4311C44.7367 45.7867 46.6852 46.3158 48.2905 45.8335C48.8773 45.6574 49.3021 44.638 49.7464 43.8225C50.9684 41.5789 52.2514 38.7504 52.8221 36.6093C52.9511 36.1215 53.3023 35.0585 53.2236 34.6243C53.0831 33.8469 51.6932 33.2705 50.9862 32.7897C49.6836 31.9018 48.8634 31.1204 47.5048 30.2901C46.9539 30.9073 45.7716 31.3219 45.321 31.8238ZM14.5465 10.1496C13.0119 11.431 13.3331 13.8319 13.5189 15.5401C16.2929 14.2159 19.9748 15.6448 19.94 17.8972C21.2644 17.8705 20.4348 16.642 20.1953 15.8505C19.4124 13.2655 21.5142 10.4571 20.2906 8.09315C17.9147 8.22986 15.9628 8.96628 14.5465 10.1496ZM25.5275 2.71241C22.0532 3.45967 17.6005 5.37541 16.1728 7.74385C17.2783 7.62195 18.0458 7.19888 19.1363 7.14652C19.5485 7.12616 20.0884 7.27767 20.5621 7.1883C21.5061 7.01061 22.3027 5.4045 23.0148 4.8069C23.709 4.22332 24.5434 3.97397 25.1144 3.44195C25.4813 3.30763 26.0237 3.31688 26.0445 2.89883C25.8855 2.76979 25.7181 2.67142 25.5275 2.71241ZM43.6133 3.41524C40.0071 1.87128 33.9033 0.709932 30.0673 2.16109C26.9721 3.33222 22.7882 5.26991 21.3618 7.72534C22.6943 10.0948 20.967 12.266 20.8568 14.6717C20.7982 15.9518 21.651 17.0693 21.7163 18.4628C21.2604 19.0337 19.8672 19.104 18.9028 19.0649C18.5782 17.8321 18.0099 16.4465 16.3371 16.3075C13.9701 16.111 12.2394 17.5976 12.1319 19.1511C12.0046 20.978 13.981 24.0059 16.7822 23.7957C17.8643 23.7145 18.1302 22.8913 19.3092 22.8998C19.9482 23.8673 18.3234 24.1711 18.1563 24.8631C18.1127 25.0419 18.291 25.7405 18.3947 26.0681C18.9035 27.6634 20.0378 29.728 21.1542 30.9425C22.5711 32.483 25.3549 32.7152 28.3498 32.8662C28.8848 31.9917 30.8553 32.0636 32.1393 32.2924C30.6005 31.8299 29.1699 30.7087 27.9844 29.7163C26.6225 28.5777 25.2431 27.3564 25.1734 25.8682C27.7469 28.5775 29.873 30.9435 34.5526 32.1353C38.0935 33.0364 42.2289 31.7223 44.9496 30.2724C46.0786 29.6698 46.7525 28.7137 47.555 27.8384C50.5576 24.5609 51.9587 19.8827 51.6506 15.3484C51.5238 13.4784 51.5294 11.6147 50.7025 10.3566C49.8384 9.04111 46.9155 7.86417 45.2046 9.05407C44.8876 7.77479 46.6274 6.98364 48.671 7.444C47.2138 6.0169 45.6845 4.30212 43.6133 3.41524ZM50.3318 45.6085C53.1497 44.5454 58.4148 42.7471 60.1814 45.6124C60.8334 46.6686 61.5982 48.4539 61.9359 49.5442C62.4129 51.0823 61.4188 54.3152 59.3354 54.8313C57.4952 55.2871 55.3481 55.2593 53.1316 54.9214C52.8706 54.7567 52.58 54.4695 52.3768 54.1702C50.7942 54.1236 49.3122 54.2347 48.0619 54.7284C48.1804 55.6166 47.3887 55.7591 46.6465 55.9421C46.0963 57.5976 47.7473 59.7596 47.3522 61.2692C47.0703 62.3446 45.3266 62.5109 44.045 62.7121C44.0032 63.3098 44.1011 63.8087 44.1886 64.3143C43.8955 65.1337 42.5812 65.6001 41.3358 65.7144C37.2384 66.0883 31.017 66.2562 27.0758 65.1808C25.976 63.1337 25.1096 60.6438 24.1936 58.3063C20.3498 58.6178 17.2409 57.0477 14.3101 56.019C13.2954 55.662 11.8917 55.4654 11.5126 54.8525C11.1451 54.259 11.2955 53.1217 11.2043 52.0474C10.9722 49.3035 10.7735 46.6569 9.81862 43.8474C9.38988 42.5866 8.64259 41.4742 8.12127 40.2594C7.63944 39.1335 6.79758 37.7421 6.57802 36.6194C6.25246 34.9554 8.31728 34.8628 9.63759 34.1417C11.6786 33.0267 13.2807 32.41 15.4912 31.4036C16.1459 31.1056 18.1202 30.3512 18.3448 30.0038C18.7912 29.315 17.5785 28.3437 17.2543 27.8038C16.7414 26.95 16.4739 26.2246 16.4004 25.3822C14.5461 25.1598 13.1405 24.3224 12.2914 23.3781C10.8869 21.8154 9.9128 18.9242 11.128 16.725C11.2233 16.5518 11.6986 16.2112 11.7687 15.9452C11.907 15.4214 11.5085 14.7249 11.4837 14.1677C11.356 11.3093 12.121 8.84649 14.6568 7.98447C15.6862 4.87248 19.3707 3.83779 22.842 2.29118C24.1396 1.71315 25.57 1.34375 27.0472 0.931254C32.3466 -0.548722 40.4772 -0.270018 44.8754 2.25416C46.7403 3.32455 49.7213 5.58457 50.7875 7.22082C53.6037 11.5407 53.4037 18.7602 51.4339 24.0151C51.1691 24.7206 50.7851 25.7577 50.2488 26.6052C49.8749 27.1969 48.7129 28.381 48.854 28.9035C48.9993 29.4437 51.5036 30.8867 52.0406 31.2796C53.0075 31.9875 54.8446 32.927 54.9933 33.8202C55.1533 34.7708 54.4414 36.0712 54.0807 36.9885C52.8751 40.0497 51.6987 42.8794 50.3318 45.6085Z" fill="#231F20"/>
<path fill-rule="evenodd" clip-rule="evenodd" d="M31.5317 24.4182C31.6845 24.2637 32.525 24.0292 33.7011 24.4589C33.7011 24.4589 32.3072 24.6352 32.4232 26.3987L31.8424 26.3104C31.8424 26.3104 31.2422 24.7114 31.5317 24.4182Z" fill="#F7E4CD"/>
<path fill-rule="evenodd" clip-rule="evenodd" d="M41.7155 39.5752C41.7155 39.8428 41.4294 40.0598 41.0765 40.0598C40.7238 40.0598 40.4377 39.8428 40.4377 39.5752C40.4377 39.3076 40.7238 39.0902 41.0765 39.0902C41.4294 39.0902 41.7155 39.3076 41.7155 39.5752Z" fill="#1D1919"/>
<path fill-rule="evenodd" clip-rule="evenodd" d="M42.3543 41.8227C42.3543 42.0904 42.0682 42.3074 41.7152 42.3074C41.3626 42.3074 41.0765 42.0904 41.0765 41.8227C41.0765 41.5551 41.3626 41.3378 41.7152 41.3378C42.0682 41.3378 42.3543 41.5551 42.3543 41.8227Z" fill="#1D1919"/>
</g>
<defs>
<clipPath id="clip0_73_69">
<rect width="63" height="66" fill="white"/>
</clipPath>
</defs>
</svg>
