<svg width="50" height="50" viewBox="0 0 50 50" fill="none" xmlns="http://www.w3.org/2000/svg">
<path d="M14.1016 0C21.89 0 28.2031 11.1937 28.2031 25.0003C28.2031 38.8073 21.8895 50 14.1016 50C6.31406 50 0 38.8073 0 25.0003C0 11.194 6.31348 0 14.1016 0ZM36.6211 1.46434C40.5152 1.46434 43.6721 12.0008 43.6721 25.0003H43.6727C43.6727 37.9968 40.5158 48.5364 36.6219 48.5364C32.7279 48.5364 29.5709 37.9968 29.5709 25.0003C29.5709 12.0043 32.7271 1.46434 36.6213 1.46434H36.6211ZM47.5201 3.91602C48.8895 3.91602 50 13.3558 50 25.0007C50 36.6418 48.8898 46.0854 47.5201 46.0854C46.1504 46.0854 45.0408 36.6445 45.0408 25.0007C45.0408 13.3565 46.151 3.91602 47.5201 3.91602Z" fill="#7544D7"/>
</svg>
