<svg width="57" height="56" viewBox="0 0 57 56" fill="none" xmlns="http://www.w3.org/2000/svg">
<path d="M54.625 8H2.375C1.06875 8 0 6.2 0 4C0 1.8 1.06875 0 2.375 0H54.625C55.9313 0 57 1.8 57 4C57 6.2 55.9313 8 54.625 8ZM54.625 32H2.375C1.06875 32 0 30.2 0 28C0 25.8 1.06875 24 2.375 24H54.625C55.9313 24 57 25.8 57 28C57 30.2 55.9313 32 54.625 32ZM54.625 56H2.375C1.06875 56 0 54.2 0 52C0 49.8 1.06875 48 2.375 48H54.625C55.9313 48 57 49.8 57 52C57 54.2 55.9313 56 54.625 56Z" fill="#7544D7"/>
</svg>
