<svg width="99" height="89" viewBox="0 0 99 89" fill="none" xmlns="http://www.w3.org/2000/svg">
<path d="M49.5 0C22.1667 0 0 19.9277 0 44.5C0 69.0723 22.1667 89 49.5 89H49.5015C59.2826 88.9826 68.8387 86.3603 76.9632 81.4642L76.974 81.4586L77.2602 81.2619L76.8209 80.6952L36.0793 33.3764V61.8008H30.2383V27.1846H37.9286L81.4182 77.5426L81.9132 78.1121L82.2002 77.8729L82.211 77.8646C87.4821 73.6922 91.7052 68.5592 94.5999 62.8067C97.4946 57.0542 98.9945 50.8138 99 44.5C99 19.9277 76.8333 0 49.5 0ZM49.5 0.68975C76.4187 0.68975 98.2328 20.3003 98.2328 44.5C98.2259 50.6531 96.7772 56.7359 93.9809 62.3521C91.1847 67.9683 87.1037 72.9919 82.0037 77.0956L38.3045 26.4942H29.4711V62.4912H36.8473V35.3949L76.1867 81.0853C68.2633 85.7778 58.9882 88.2886 49.5 88.3096C22.5813 88.3103 0.76725 68.7004 0.76725 44.5C0.76725 20.2996 22.5813 0.68975 49.5 0.68975ZM62.759 26.4942V52.8743L70.0758 61.5122V26.4942H62.759ZM63.5263 27.1839H69.3085V59.4673L63.5263 52.6428V27.1839Z" fill="#7544D7"/>
</svg>
