<svg width="90" height="83" viewBox="0 0 90 83" fill="none" xmlns="http://www.w3.org/2000/svg">
<path d="M45 47.917C48.8833 47.917 52.0312 45.0138 52.0312 41.4326C52.0312 37.8514 48.8833 34.9482 45 34.9482C41.1167 34.9482 37.9688 37.8514 37.9688 41.4326C37.9688 45.0138 41.1167 47.917 45 47.917Z" fill="#00D8FF"/>
<path d="M45 56.3001C36.5488 56.4886 28.1188 55.438 20.025 53.1876C16.2861 52.0945 12.7989 50.3727 9.73969 48.109C8.5723 47.3357 7.60014 46.3386 6.8899 45.1862C6.17966 44.0338 5.74816 42.7533 5.625 41.4327C5.625 37.1452 10.7325 32.9433 19.2881 30.194C27.5983 27.7578 36.281 26.5771 45 26.6976C53.6026 26.5867 62.169 27.7461 70.3744 30.1317C73.9752 31.1904 77.3441 32.829 80.325 34.9716C81.4724 35.7089 82.43 36.6698 83.1299 37.7864C83.8298 38.9029 84.2549 40.1478 84.375 41.4327C84.375 45.8887 78.6656 50.4045 69.4688 53.2109C61.5317 55.388 53.2795 56.4298 45 56.3001ZM45 29.7997C36.6584 29.6969 28.3523 30.8193 20.3934 33.1249C12.5184 35.659 8.98875 39.1242 8.98875 41.4249C8.98875 43.8319 12.7828 47.6162 21.1134 50.2436C28.8565 52.3857 36.9186 53.3828 45 53.1979C52.9211 53.3286 60.8173 52.3401 68.4141 50.267C77.0625 47.624 81 43.8345 81 41.4327C80.8581 40.6085 80.5324 39.8203 80.0435 39.1181C79.5545 38.4158 78.913 37.8147 78.1594 37.3527C75.4924 35.4519 72.4829 33.9996 69.2691 33.0626C61.4194 30.7899 53.2265 29.6884 45 29.7997Z" fill="#00D8FF"/>
<path d="M29.025 73.774C27.713 73.8017 26.4164 73.5082 25.2675 72.9232C21.24 70.7808 19.845 64.6025 21.5353 56.3933C23.399 48.537 26.6282 41.0105 31.0978 34.1052C35.2905 27.1775 40.658 20.9131 46.9969 15.5495C49.7901 13.2014 53.0124 11.3283 56.5144 10.017C57.781 9.46957 59.1627 9.18579 60.5616 9.18579C61.9604 9.18579 63.3421 9.46957 64.6088 10.017C68.7966 12.2424 70.1831 19.0588 68.2284 27.8075C66.3072 35.2375 63.1619 42.3518 58.9022 48.9025C54.8571 55.7483 49.6586 61.9582 43.5009 67.3C40.6063 69.7401 37.2469 71.6651 33.5925 72.9777C32.1295 73.4785 30.5853 73.7477 29.025 73.774ZM34.0116 35.6459C29.7481 42.2582 26.6531 49.4542 24.8428 56.9639C23.2875 64.5247 24.7809 69.0715 26.9522 70.2283C29.2022 71.4292 34.6641 70.2906 41.2959 64.9474C47.1741 59.8298 52.136 53.8856 55.9969 47.3359C60.0776 41.0733 63.0948 34.2715 64.9434 27.1669C66.7828 18.9317 65.1938 13.8895 62.9381 12.6912C62.0927 12.3924 61.1893 12.2587 60.285 12.2984C59.3807 12.3382 58.4952 12.5505 57.6844 12.922C54.5672 14.1083 51.7014 15.7923 49.2188 17.8968C43.1625 23.0345 38.0354 29.0316 34.0313 35.6614L34.0116 35.6459Z" fill="#00D8FF"/>
<path d="M60.9666 73.8076C57.1556 73.8076 52.3153 71.6808 47.2753 67.6838C40.8254 62.2713 35.3671 55.9325 31.1119 48.9128C26.6983 42.1026 23.4947 34.6849 21.6225 26.9412C20.8106 23.5342 20.6601 20.0215 21.1781 16.5662C21.2979 15.2844 21.7211 14.0424 22.418 12.9278C23.1148 11.8133 24.0683 10.8533 25.2113 10.1155C29.3934 7.88229 36.4894 10.1778 43.7316 16.1071C49.752 21.3521 54.8645 27.4176 58.8909 34.0921C63.3018 40.7434 66.539 47.9986 68.4816 55.5865C69.3285 59.1185 69.4591 62.7645 68.8669 66.3402C68.726 67.6589 68.2775 68.9339 67.5522 70.0778C66.827 71.2216 65.8421 72.2073 64.665 72.9673C63.5348 73.5449 62.2584 73.835 60.9666 73.8076ZM34.0228 47.3514C38.105 54.0599 43.3189 60.1265 49.4691 65.3235C55.7944 70.3424 60.8119 71.4214 62.9691 70.2516C65.2191 69.0455 66.8784 64.1226 65.1684 56.1572C63.295 48.9127 60.19 41.9873 55.9688 35.638C52.1264 29.2499 47.2465 23.4418 41.4984 18.4155C34.6809 12.8338 29.1516 11.5862 26.8988 12.7897C26.1966 13.3159 25.6204 13.9707 25.2065 14.7126C24.7926 15.4546 24.55 16.2677 24.4941 17.1005C24.0469 20.1821 24.1926 23.3123 24.9244 26.3472C26.7252 33.7527 29.7977 40.8453 34.0256 47.3566L34.0228 47.3514Z" fill="#00D8FF"/>
</svg>
