<svg width="416" height="416" viewBox="0 0 416 416" fill="none" xmlns="http://www.w3.org/2000/svg">
<path d="M208 339C199.5 339 192.6 345.9 192.6 354.4V400.6C192.6 409.1 199.5 416 208 416C216.5 416 223.4 409.1 223.4 400.6V354.4C223.4 345.9 216.5 339 208 339ZM208 0C199.5 0 192.6 6.9 192.6 15.4V61.6C192.6 70.1 199.5 77 208 77C216.5 77 223.4 70.1 223.4 61.6V15.4C223.4 6.9 216.5 0 208 0ZM77 208C77 199.5 70.1 192.6 61.6 192.6H15.4C6.9 192.6 0 199.5 0 208C0 216.5 6.9 223.4 15.4 223.4H61.6C70.1 223.4 77 216.5 77 208ZM400.6 192.6H354.4C345.9 192.6 339 199.5 339 208C339 216.5 345.9 223.4 354.4 223.4H400.6C409.1 223.4 416 216.5 416 208C416 199.5 409.1 192.6 400.6 192.6ZM104.5 296.1C100.4 296.1 96.5 297.7 93.6 300.6L60.9 333.3C58 336.2 56.4 340.1 56.4 344.2C56.4 348.3 58 352.2 60.9 355.1C63.8 358 67.7 359.6 71.8 359.6C75.9 359.6 79.8 358 82.7 355.1L115.4 322.4C121.4 316.4 121.4 306.6 115.4 300.6C112.5 297.7 108.6 296.1 104.5 296.1ZM311.5 119.9C315.6 119.9 319.5 118.3 322.4 115.4L355.1 82.7C358 79.8 359.6 75.9 359.6 71.8C359.6 67.7 358 63.8 355.1 60.9C352.2 58 348.3 56.4 344.2 56.4C340.1 56.4 336.2 58 333.3 60.9L300.6 93.6C297.7 96.5 296.1 100.4 296.1 104.5C296.1 108.6 297.7 112.5 300.6 115.4C303.5 118.3 307.4 119.9 311.5 119.9ZM82.7 60.9C79.8 58 75.9 56.4 71.8 56.4C67.7 56.4 63.8 58 60.9 60.9C58 63.8 56.4 67.7 56.4 71.8C56.4 75.9 58 79.8 60.9 82.7L93.6 115.4C96.5 118.3 100.4 119.9 104.5 119.9C108.6 119.9 112.5 118.3 115.4 115.4C118.3 112.5 119.9 108.6 119.9 104.5C119.9 100.4 118.3 96.5 115.4 93.6L82.7 60.9ZM322.4 300.6C319.5 297.7 315.6 296.1 311.5 296.1C307.4 296.1 303.5 297.7 300.6 300.6C294.6 306.6 294.6 316.4 300.6 322.4L333.3 355.1C336.2 358 340.1 359.6 344.2 359.6C348.3 359.6 352.2 358 355.1 355.1C358 352.2 359.6 348.3 359.6 344.2C359.6 340.1 358 336.2 355.1 333.3L322.4 300.6ZM208 112C155.1 112 112 155.1 112 208C112 260.9 155.1 304 208 304C260.9 304 304 260.9 304 208C304 155.1 260.9 112 208 112Z" fill="#7544D7"/>
</svg>
