<svg width="90" height="65" viewBox="0 0 90 65" fill="none" xmlns="http://www.w3.org/2000/svg">
<g clip-path="url(#clip0_40_62)">
<path d="M45 0C33.0469 0 25.6641 7.17532 22.5 21.526C27.0703 14.3506 32.3438 11.8182 38.3203 13.5065C41.8359 14.3506 43.9453 17.3052 46.7578 20.6818C51.3281 26.1688 56.25 32.5 67.5 32.5C79.4531 32.5 86.8359 25.3247 90 10.974C85.4297 18.1494 80.1562 20.6818 74.1797 18.9935C70.6641 17.7273 68.5547 14.7727 65.7422 11.3961C61.1719 6.33117 56.25 0 45 0ZM22.5 32.5C10.5469 32.5 3.16406 39.6753 0 54.026C4.57031 46.8507 9.84375 44.3182 15.8203 46.0065C19.3359 46.8507 21.4453 49.8052 24.2578 53.1818C28.8281 58.6688 33.75 65 45 65C56.9531 65 64.3359 57.8247 67.5 43.0519C62.9297 50.2273 57.6562 53.1818 51.6797 51.4935C48.1641 50.2273 46.0547 47.2727 43.2422 43.8961C38.6719 38.8312 33.75 32.5 22.5 32.5Z" fill="url(#paint0_linear_40_62)"/>
</g>
<defs>
<linearGradient id="paint0_linear_40_62" x1="-252" y1="2080" x2="8172.59" y2="6119.57" gradientUnits="userSpaceOnUse">
<stop stop-color="#2298BD"/>
<stop offset="1" stop-color="#0ED7B5"/>
</linearGradient>
<clipPath id="clip0_40_62">
<rect width="90" height="65" fill="white"/>
</clipPath>
</defs>
</svg>
