<svg width="77" height="80" viewBox="0 0 77 80" fill="none" xmlns="http://www.w3.org/2000/svg">
<g clip-path="url(#clip0_52_12)">
<path d="M0 0H77V80H0V0Z" fill="#017ACB"/>
<path d="M36.972 29.625H40.6656V36.25H30.6797V65.725L30.415 65.8C30.054 65.9 25.3017 65.9 24.279 65.7875L23.4609 65.7125V36.25H13.475V29.625L16.6392 29.5875C18.3717 29.5625 22.8233 29.5625 26.5289 29.5875C30.2345 29.6125 34.9267 29.625 36.972 29.625ZM65.1612 62.6C63.6934 64.2125 62.1173 65.1125 59.4945 65.85C58.3515 66.175 58.159 66.1875 55.5843 66.175C53.0097 66.1625 52.8051 66.1625 51.5539 65.825C48.3175 64.9625 45.7067 63.275 43.9261 60.8875C43.4208 60.2125 42.5906 58.8125 42.5906 58.6375C42.5906 58.5875 42.7109 58.475 42.8673 58.4C43.0237 58.325 43.3486 58.1125 43.6133 57.95C43.8779 57.7875 44.3592 57.4875 44.684 57.3125C45.0089 57.1375 45.9473 56.5625 46.7654 56.05C47.5836 55.5375 48.3295 55.125 48.4137 55.125C48.4979 55.125 48.6543 55.3 48.7747 55.5125C49.4965 56.775 51.1809 58.3875 52.372 58.9375C53.1059 59.2625 54.7301 59.625 55.5122 59.625C56.234 59.625 57.5575 59.3 58.2673 58.9625C59.0253 58.6 59.4103 58.2375 59.8675 57.5125C60.1803 57 60.2164 56.8625 60.2043 55.8875C60.2043 54.9875 60.1562 54.7375 59.9156 54.325C59.2418 53.175 58.3275 52.575 54.6218 50.875C50.7959 49.1125 49.0754 48.0625 47.6798 46.65C46.6451 45.6 46.4406 45.3125 45.7909 44C44.9487 42.3125 44.8404 41.7625 44.8284 39.25C44.8164 37.4875 44.8525 36.9125 45.0329 36.3125C45.2856 35.4125 46.1037 33.675 46.4767 33.2375C47.2467 32.3 47.5234 32.0124 48.0648 31.5499C49.7011 30.1499 52.2517 29.225 54.694 29.1375C54.9708 29.1375 55.8851 29.1875 56.7393 29.25C59.1937 29.4625 60.8661 30.0874 62.4782 31.4249C63.6934 32.425 65.5342 34.775 65.3537 35.0875C65.2334 35.275 60.4329 38.6 60.1201 38.7C59.9276 38.7625 59.7953 38.6875 59.5306 38.3625C57.8943 36.325 57.2326 35.8874 55.6445 35.7874C54.5136 35.7124 53.912 35.85 53.154 36.375C52.36 36.925 51.975 37.7625 51.975 38.925C51.987 40.625 52.6126 41.425 54.9226 42.6125C56.4145 43.375 57.6898 44 57.7861 44C57.9304 44 61.0225 45.6 61.8286 46.1C65.5823 48.3875 67.1103 50.7375 67.5073 54.7875C67.7961 57.8375 66.9659 60.625 65.1612 62.6Z" fill="white"/>
</g>
<defs>
<clipPath id="clip0_52_12">
<rect width="77" height="80" fill="white"/>
</clipPath>
</defs>
</svg>
